<svg xmlns="http://www.w3.org/2000/svg" xmlns:xlink="http://www.w3.org/1999/xlink" width="500" zoomAndPan="magnify" viewBox="0 0 375 374.999991" height="500" preserveAspectRatio="xMidYMid meet" version="1.0"><defs><g/></defs><g fill="#ffffff" fill-opacity="1"><g transform="translate(29.267265, 206.301378)"><g><path d="M 22.78125 0.789062 C 33.128906 0.789062 41.171875 -5.511719 43.140625 -15.074219 L 33.917969 -15.074219 C 32.285156 -10.574219 28.125 -7.707031 22.949219 -7.707031 C 16.253906 -7.707031 11.53125 -12.597656 11.53125 -19.6875 C 11.53125 -26.773438 16.3125 -31.667969 23.003906 -31.667969 C 28.011719 -31.667969 32.117188 -28.96875 33.636719 -24.636719 L 42.859375 -24.636719 C 40.609375 -34.085938 32.738281 -40.160156 22.722656 -40.160156 C 10.800781 -40.160156 2.417969 -31.722656 2.417969 -19.6875 C 2.417969 -7.648438 10.800781 0.789062 22.78125 0.789062 Z M 22.78125 0.789062 "/></g></g></g><g fill="#ffffff" fill-opacity="1"><g transform="translate(71.395655, 206.301378)"><g><path d="M 18.785156 0.789062 C 28.574219 0.789062 35.324219 -5.570312 35.324219 -14.792969 C 35.324219 -23.960938 28.574219 -30.316406 18.785156 -30.316406 C 8.945312 -30.316406 2.195312 -23.960938 2.195312 -14.792969 C 2.195312 -5.570312 8.945312 0.789062 18.785156 0.789062 Z M 10.632812 -14.792969 C 10.632812 -19.628906 14.003906 -23.003906 18.785156 -23.003906 C 23.566406 -23.003906 26.886719 -19.628906 26.886719 -14.792969 C 26.886719 -9.957031 23.566406 -6.582031 18.785156 -6.582031 C 14.003906 -6.582031 10.632812 -9.957031 10.632812 -14.792969 Z M 10.632812 -14.792969 "/></g></g></g><g fill="#ffffff" fill-opacity="1"><g transform="translate(105.64952, 206.301378)"><g><path d="M 4.273438 0 L 12.824219 0 L 12.824219 -15.972656 C 12.824219 -20.25 15.1875 -23.003906 18.84375 -23.003906 C 22.386719 -23.003906 24.582031 -20.363281 24.582031 -16.199219 L 24.582031 0 L 33.019531 0 L 33.019531 -15.972656 C 33.019531 -20.25 35.378906 -23.003906 39.035156 -23.003906 C 42.578125 -23.003906 44.773438 -20.363281 44.773438 -16.199219 L 44.773438 0 L 53.324219 0 L 53.324219 -17.210938 C 53.324219 -25.3125 48.484375 -30.316406 40.949219 -30.316406 C 36.449219 -30.316406 32.738281 -28.574219 30.316406 -25.480469 C 28.238281 -28.628906 24.804688 -30.316406 20.585938 -30.316406 C 16.816406 -30.316406 13.613281 -29.023438 11.476562 -26.492188 L 10.632812 -29.53125 L 4.273438 -29.53125 Z M 4.273438 0 "/></g></g></g><g fill="#ffffff" fill-opacity="1"><g transform="translate(159.420951, 206.301378)"><g><path d="M 4.273438 0 L 12.824219 0 L 12.824219 -15.972656 C 12.824219 -20.25 15.1875 -23.003906 18.84375 -23.003906 C 22.386719 -23.003906 24.582031 -20.363281 24.582031 -16.199219 L 24.582031 0 L 33.019531 0 L 33.019531 -15.972656 C 33.019531 -20.25 35.378906 -23.003906 39.035156 -23.003906 C 42.578125 -23.003906 44.773438 -20.363281 44.773438 -16.199219 L 44.773438 0 L 53.324219 0 L 53.324219 -17.210938 C 53.324219 -25.3125 48.484375 -30.316406 40.949219 -30.316406 C 36.449219 -30.316406 32.738281 -28.574219 30.316406 -25.480469 C 28.238281 -28.628906 24.804688 -30.316406 20.585938 -30.316406 C 16.816406 -30.316406 13.613281 -29.023438 11.476562 -26.492188 L 10.632812 -29.53125 L 4.273438 -29.53125 Z M 4.273438 0 "/></g></g></g><g fill="#ffffff" fill-opacity="1"><g transform="translate(213.192374, 206.301378)"><g><path d="M 4.273438 0 L 12.824219 0 L 12.824219 -29.53125 L 4.273438 -29.53125 Z M 3.039062 -39.09375 C 3.039062 -35.941406 5.289062 -33.75 8.550781 -33.75 C 11.8125 -33.75 14.0625 -35.941406 14.0625 -39.09375 C 14.0625 -42.242188 11.8125 -44.4375 8.550781 -44.4375 C 5.289062 -44.4375 3.039062 -42.242188 3.039062 -39.09375 Z M 3.039062 -39.09375 "/></g></g></g><g fill="#ffffff" fill-opacity="1"><g transform="translate(227.028746, 206.301378)"><g><path d="M 18.503906 0 L 23.90625 0 L 23.90625 -7.425781 L 20.363281 -7.425781 C 16.988281 -7.425781 15.410156 -9.054688 15.410156 -12.488281 L 15.410156 -22.554688 L 23.511719 -22.554688 L 23.511719 -29.53125 L 15.410156 -29.53125 L 15.410156 -37.179688 L 8.773438 -37.179688 L 8.269531 -33.355469 C 7.820312 -30.316406 6.976562 -29.53125 3.769531 -29.53125 L 1.125 -29.53125 L 1.125 -22.554688 L 6.863281 -22.554688 L 6.863281 -11.195312 C 6.863281 -3.992188 11.023438 0 18.503906 0 Z M 18.503906 0 "/></g></g></g><g fill="#ffffff" fill-opacity="1"><g transform="translate(250.033306, 206.301378)"><g><path d="M 18.503906 0 L 23.90625 0 L 23.90625 -7.425781 L 20.363281 -7.425781 C 16.988281 -7.425781 15.410156 -9.054688 15.410156 -12.488281 L 15.410156 -22.554688 L 23.511719 -22.554688 L 23.511719 -29.53125 L 15.410156 -29.53125 L 15.410156 -37.179688 L 8.773438 -37.179688 L 8.269531 -33.355469 C 7.820312 -30.316406 6.976562 -29.53125 3.769531 -29.53125 L 1.125 -29.53125 L 1.125 -22.554688 L 6.863281 -22.554688 L 6.863281 -11.195312 C 6.863281 -3.992188 11.023438 0 18.503906 0 Z M 18.503906 0 "/></g></g></g><g fill="#ffffff" fill-opacity="1"><g transform="translate(273.037865, 206.301378)"><g><path d="M 18.222656 0.789062 C 25.480469 0.789062 31.21875 -2.925781 33.804688 -9.167969 L 25.144531 -9.167969 C 23.738281 -7.199219 21.207031 -6.074219 18.394531 -6.074219 C 14.511719 -6.074219 11.476562 -8.269531 10.6875 -12.320312 L 34.367188 -12.320312 C 34.875 -23.117188 28.460938 -30.316406 18.335938 -30.316406 C 8.773438 -30.316406 2.195312 -23.960938 2.195312 -14.792969 C 2.195312 -5.570312 8.71875 0.789062 18.222656 0.789062 Z M 10.742188 -17.71875 C 11.699219 -21.316406 14.625 -23.511719 18.394531 -23.511719 C 22.332031 -23.511719 25.144531 -21.316406 26.097656 -17.71875 Z M 10.742188 -17.71875 "/></g></g></g><g fill="#ffffff" fill-opacity="1"><g transform="translate(306.279311, 206.301378)"><g><path d="M 17.210938 0.789062 C 21.488281 0.789062 25.144531 -0.730469 27.785156 -3.375 L 28.800781 0 L 35.15625 0 L 35.15625 -41.625 L 26.605469 -41.625 L 26.605469 -27.222656 C 24.074219 -29.191406 20.867188 -30.316406 17.210938 -30.316406 C 8.4375 -30.316406 2.195312 -23.847656 2.195312 -14.792969 C 2.195312 -5.625 8.4375 0.789062 17.210938 0.789062 Z M 10.632812 -14.792969 C 10.632812 -19.574219 13.949219 -23.003906 18.785156 -23.003906 C 23.566406 -23.003906 26.886719 -19.574219 26.886719 -14.792969 C 26.886719 -9.957031 23.566406 -6.582031 18.785156 -6.582031 C 13.949219 -6.582031 10.632812 -9.957031 10.632812 -14.792969 Z M 10.632812 -14.792969 "/></g></g></g></svg>