<svg xmlns="http://www.w3.org/2000/svg" xmlns:xlink="http://www.w3.org/1999/xlink" width="500" zoomAndPan="magnify" viewBox="0 0 375 374.999991" height="500" preserveAspectRatio="xMidYMid meet" version="1.0"><defs><g/></defs><g fill="#ffffff" fill-opacity="1"><g transform="translate(19.616497, 205.623564)"><g><path d="M 4.121094 0 L 12.363281 0 L 12.363281 -28.464844 L 4.121094 -28.464844 Z M 2.929688 -37.683594 C 2.929688 -34.648438 5.097656 -32.53125 8.242188 -32.53125 C 11.386719 -32.53125 13.554688 -34.648438 13.554688 -37.683594 C 13.554688 -40.71875 11.386719 -42.835938 8.242188 -42.835938 C 5.097656 -42.835938 2.929688 -40.71875 2.929688 -37.683594 Z M 2.929688 -37.683594 "/></g></g></g><g fill="#ffffff" fill-opacity="1"><g transform="translate(32.95407, 205.623564)"><g><path d="M 4.121094 0 L 12.363281 0 L 12.363281 -14.910156 C 12.363281 -19.410156 14.855469 -22.175781 18.652344 -22.175781 C 22.175781 -22.175781 24.289062 -19.683594 24.289062 -15.507812 L 24.289062 0 L 32.53125 0 L 32.53125 -16.375 C 32.53125 -24.238281 28.03125 -29.226562 20.605469 -29.226562 C 16.808594 -29.226562 13.390625 -27.921875 11.113281 -25.265625 L 10.246094 -28.464844 L 4.121094 -28.464844 Z M 4.121094 0 "/></g></g></g><g fill="#ffffff" fill-opacity="1"><g transform="translate(65.918854, 205.623564)"><g><path d="M 12.308594 0 L 20.550781 0 L 32.425781 -28.464844 L 23.476562 -28.464844 L 20.222656 -19.519531 L 16.484375 -9.867188 L 12.6875 -19.519531 L 9.488281 -28.464844 L 0.488281 -28.464844 Z M 12.308594 0 "/></g></g></g><g fill="#ffffff" fill-opacity="1"><g transform="translate(95.684732, 205.623564)"><g><path d="M 17.566406 0.757812 C 24.5625 0.757812 30.09375 -2.820312 32.585938 -8.839844 L 24.238281 -8.839844 C 22.882812 -6.941406 20.441406 -5.855469 17.730469 -5.855469 C 13.988281 -5.855469 11.0625 -7.96875 10.300781 -11.875 L 33.128906 -11.875 C 33.617188 -22.285156 27.4375 -29.226562 17.675781 -29.226562 C 8.457031 -29.226562 2.113281 -23.097656 2.113281 -14.261719 C 2.113281 -5.367188 8.402344 0.757812 17.566406 0.757812 Z M 10.355469 -17.078125 C 11.277344 -20.550781 14.097656 -22.664062 17.730469 -22.664062 C 21.527344 -22.664062 24.238281 -20.550781 25.160156 -17.078125 Z M 10.355469 -17.078125 "/></g></g></g><g fill="#ffffff" fill-opacity="1"><g transform="translate(127.727802, 205.623564)"><g><path d="M 15.074219 0.757812 C 22.773438 0.757812 27.4375 -2.601562 27.4375 -8.023438 C 27.4375 -12.6875 23.964844 -15.667969 16.917969 -17.078125 C 12.035156 -18.054688 10.519531 -18.867188 10.519531 -20.605469 C 10.519531 -22.285156 12.035156 -23.261719 14.476562 -23.261719 C 17.242188 -23.261719 18.921875 -22.011719 19.085938 -19.84375 L 26.949219 -19.84375 C 26.566406 -25.863281 22.121094 -29.226562 14.53125 -29.226562 C 6.886719 -29.226562 2.546875 -26.132812 2.546875 -20.605469 C 2.546875 -15.886719 5.800781 -13.066406 13.066406 -11.765625 C 17.460938 -11.007812 19.300781 -9.867188 19.300781 -8.078125 C 19.300781 -6.398438 17.785156 -5.367188 15.183594 -5.367188 C 12.144531 -5.367188 10.300781 -6.832031 10.246094 -9.164062 L 2.167969 -9.164062 C 2.167969 -3.199219 7.265625 0.757812 15.074219 0.757812 Z M 15.074219 0.757812 "/></g></g></g><g fill="#ffffff" fill-opacity="1"><g transform="translate(154.240546, 205.623564)"><g><path d="M 17.839844 0 L 23.042969 0 L 23.042969 -7.15625 L 19.628906 -7.15625 C 16.375 -7.15625 14.855469 -8.730469 14.855469 -12.035156 L 14.855469 -21.742188 L 22.664062 -21.742188 L 22.664062 -28.464844 L 14.855469 -28.464844 L 14.855469 -35.839844 L 8.457031 -35.839844 L 7.96875 -32.152344 C 7.535156 -29.226562 6.722656 -28.464844 3.632812 -28.464844 L 1.085938 -28.464844 L 1.085938 -21.742188 L 6.613281 -21.742188 L 6.613281 -10.789062 C 6.613281 -3.851562 10.628906 0 17.839844 0 Z M 17.839844 0 "/></g></g></g><g fill="#ffffff" fill-opacity="1"><g transform="translate(176.415784, 205.623564)"><g><path d="M 4.121094 0 L 12.363281 0 L 12.363281 -28.464844 L 4.121094 -28.464844 Z M 2.929688 -37.683594 C 2.929688 -34.648438 5.097656 -32.53125 8.242188 -32.53125 C 11.386719 -32.53125 13.554688 -34.648438 13.554688 -37.683594 C 13.554688 -40.71875 11.386719 -42.835938 8.242188 -42.835938 C 5.097656 -42.835938 2.929688 -40.71875 2.929688 -37.683594 Z M 2.929688 -37.683594 "/></g></g></g><g fill="#ffffff" fill-opacity="1"><g transform="translate(189.753352, 205.623564)"><g><path d="M 18 12.035156 C 27.109375 12.035156 32.910156 6.941406 32.910156 -1.574219 L 32.910156 -28.464844 L 26.785156 -28.464844 L 25.917969 -25.320312 C 23.421875 -27.816406 19.953125 -29.226562 15.886719 -29.226562 C 7.863281 -29.226562 2.113281 -23.316406 2.113281 -15.019531 C 2.113281 -6.667969 7.863281 -0.757812 15.886719 -0.757812 C 19.300781 -0.757812 22.339844 -1.789062 24.671875 -3.578125 L 24.671875 -1.574219 C 24.671875 3.035156 22.339844 5.367188 17.839844 5.367188 C 14.421875 5.367188 12.144531 3.957031 11.550781 1.464844 L 3.523438 1.464844 C 4.230469 8.023438 9.757812 12.035156 18 12.035156 Z M 10.246094 -15.019531 C 10.246094 -19.355469 13.285156 -22.394531 17.621094 -22.394531 C 21.960938 -22.394531 25.050781 -19.355469 25.050781 -15.019531 C 25.050781 -10.628906 21.960938 -7.589844 17.621094 -7.589844 C 13.285156 -7.589844 10.246094 -10.628906 10.246094 -15.019531 Z M 10.246094 -15.019531 "/></g></g></g><g fill="#ffffff" fill-opacity="1"><g transform="translate(223.694081, 205.623564)"><g><path d="M 13.609375 0.542969 C 17.839844 0.542969 21.308594 -0.8125 23.75 -3.308594 L 24.671875 0 L 30.796875 0 L 30.796875 -17.132812 C 30.796875 -24.671875 25.699219 -29.226562 17.1875 -29.226562 C 9.921875 -29.226562 5.152344 -25.753906 4.121094 -19.574219 L 12.035156 -19.574219 C 12.523438 -21.578125 14.585938 -22.933594 17.242188 -22.933594 C 20.496094 -22.933594 22.71875 -21.089844 22.71875 -18.273438 L 22.71875 -16.972656 L 12.417969 -16.972656 C 6.507812 -16.972656 2.710938 -13.554688 2.710938 -8.296875 C 2.710938 -2.820312 6.886719 0.542969 13.609375 0.542969 Z M 10.84375 -8.621094 C 10.84375 -10.574219 12.472656 -11.820312 14.964844 -11.820312 L 22.773438 -11.820312 C 22.609375 -7.96875 19.628906 -5.367188 15.507812 -5.367188 C 12.6875 -5.367188 10.84375 -6.667969 10.84375 -8.621094 Z M 10.84375 -8.621094 "/></g></g></g><g fill="#ffffff" fill-opacity="1"><g transform="translate(254.923883, 205.623564)"><g><path d="M 17.839844 0 L 23.042969 0 L 23.042969 -7.15625 L 19.628906 -7.15625 C 16.375 -7.15625 14.855469 -8.730469 14.855469 -12.035156 L 14.855469 -21.742188 L 22.664062 -21.742188 L 22.664062 -28.464844 L 14.855469 -28.464844 L 14.855469 -35.839844 L 8.457031 -35.839844 L 7.96875 -32.152344 C 7.535156 -29.226562 6.722656 -28.464844 3.632812 -28.464844 L 1.085938 -28.464844 L 1.085938 -21.742188 L 6.613281 -21.742188 L 6.613281 -10.789062 C 6.613281 -3.851562 10.628906 0 17.839844 0 Z M 17.839844 0 "/></g></g></g><g fill="#ffffff" fill-opacity="1"><g transform="translate(277.099122, 205.623564)"><g><path d="M 4.121094 0 L 12.363281 0 L 12.363281 -28.464844 L 4.121094 -28.464844 Z M 2.929688 -37.683594 C 2.929688 -34.648438 5.097656 -32.53125 8.242188 -32.53125 C 11.386719 -32.53125 13.554688 -34.648438 13.554688 -37.683594 C 13.554688 -40.71875 11.386719 -42.835938 8.242188 -42.835938 C 5.097656 -42.835938 2.929688 -40.71875 2.929688 -37.683594 Z M 2.929688 -37.683594 "/></g></g></g><g fill="#ffffff" fill-opacity="1"><g transform="translate(290.436689, 205.623564)"><g><path d="M 12.308594 0 L 20.550781 0 L 32.425781 -28.464844 L 23.476562 -28.464844 L 20.222656 -19.519531 L 16.484375 -9.867188 L 12.6875 -19.519531 L 9.488281 -28.464844 L 0.488281 -28.464844 Z M 12.308594 0 "/></g></g></g><g fill="#ffffff" fill-opacity="1"><g transform="translate(320.202562, 205.623564)"><g><path d="M 17.566406 0.757812 C 24.5625 0.757812 30.09375 -2.820312 32.585938 -8.839844 L 24.238281 -8.839844 C 22.882812 -6.941406 20.441406 -5.855469 17.730469 -5.855469 C 13.988281 -5.855469 11.0625 -7.96875 10.300781 -11.875 L 33.128906 -11.875 C 33.617188 -22.285156 27.4375 -29.226562 17.675781 -29.226562 C 8.457031 -29.226562 2.113281 -23.097656 2.113281 -14.261719 C 2.113281 -5.367188 8.402344 0.757812 17.566406 0.757812 Z M 10.355469 -17.078125 C 11.277344 -20.550781 14.097656 -22.664062 17.730469 -22.664062 C 21.527344 -22.664062 24.238281 -20.550781 25.160156 -17.078125 Z M 10.355469 -17.078125 "/></g></g></g></svg>