<svg xmlns="http://www.w3.org/2000/svg" xmlns:xlink="http://www.w3.org/1999/xlink" width="500" zoomAndPan="magnify" viewBox="0 0 375 374.999991" height="500" preserveAspectRatio="xMidYMid meet" version="1.0"><defs><g/></defs><g fill="#ffffff" fill-opacity="1"><g transform="translate(87.77812, 209.60165)"><g><path d="M 0.59375 0 L 11.835938 0 L 14.945312 -8 L 33.324219 -8 L 36.433594 0 L 47.671875 0 L 29.292969 -46.285156 L 18.976562 -46.285156 Z M 17.65625 -16.265625 L 24.132812 -33.191406 L 30.679688 -16.265625 Z M 17.65625 -16.265625 "/></g></g></g><g fill="#ffffff" fill-opacity="1"><g transform="translate(132.210111, 209.60165)"><g><path d="M 20.234375 0.925781 C 25.257812 0.925781 29.554688 -0.859375 32.664062 -3.96875 L 33.855469 0 L 41.324219 0 L 41.324219 -48.929688 L 31.277344 -48.929688 L 31.277344 -32.003906 C 28.300781 -34.316406 24.53125 -35.640625 20.234375 -35.640625 C 9.917969 -35.640625 2.578125 -28.035156 2.578125 -17.390625 C 2.578125 -6.613281 9.917969 0.925781 20.234375 0.925781 Z M 12.496094 -17.390625 C 12.496094 -23.011719 16.398438 -27.042969 22.085938 -27.042969 C 27.703125 -27.042969 31.605469 -23.011719 31.605469 -17.390625 C 31.605469 -11.703125 27.703125 -7.734375 22.085938 -7.734375 C 16.398438 -7.734375 12.496094 -11.703125 12.496094 -17.390625 Z M 12.496094 -17.390625 "/></g></g></g><g fill="#ffffff" fill-opacity="1"><g transform="translate(174.724634, 209.60165)"><g><path d="M 21.421875 0.925781 C 29.953125 0.925781 36.699219 -3.4375 39.738281 -10.777344 L 29.554688 -10.777344 C 27.902344 -8.464844 24.929688 -7.140625 21.621094 -7.140625 C 17.058594 -7.140625 13.488281 -9.71875 12.5625 -14.480469 L 40.398438 -14.480469 C 40.996094 -27.175781 33.457031 -35.640625 21.554688 -35.640625 C 10.316406 -35.640625 2.578125 -28.167969 2.578125 -17.390625 C 2.578125 -6.546875 10.25 0.925781 21.421875 0.925781 Z M 12.628906 -20.828125 C 13.753906 -25.058594 17.191406 -27.640625 21.621094 -27.640625 C 26.25 -27.640625 29.554688 -25.058594 30.679688 -20.828125 Z M 12.628906 -20.828125 "/></g></g></g><g fill="#ffffff" fill-opacity="1"><g transform="translate(213.800955, 209.60165)"><g><path d="M 26.050781 0.925781 C 36.433594 0.925781 43.773438 -6.613281 43.773438 -17.390625 C 43.773438 -28.035156 36.433594 -35.640625 26.050781 -35.640625 C 21.027344 -35.640625 16.730469 -33.855469 13.621094 -30.746094 L 12.496094 -34.714844 L 5.023438 -34.714844 L 5.023438 13.222656 L 15.074219 13.222656 L 15.074219 -2.710938 C 17.984375 -0.398438 21.753906 0.925781 26.050781 0.925781 Z M 14.679688 -17.390625 C 14.679688 -23.011719 18.644531 -27.042969 24.265625 -27.042969 C 29.953125 -27.042969 33.855469 -23.011719 33.855469 -17.390625 C 33.855469 -11.703125 29.953125 -7.734375 24.265625 -7.734375 C 18.644531 -7.734375 14.679688 -11.703125 14.679688 -17.390625 Z M 14.679688 -17.390625 "/></g></g></g><g fill="#ffffff" fill-opacity="1"><g transform="translate(256.315474, 209.60165)"><g><path d="M 21.753906 0 L 28.101562 0 L 28.101562 -8.726562 L 23.9375 -8.726562 C 19.96875 -8.726562 18.117188 -10.644531 18.117188 -14.679688 L 18.117188 -26.515625 L 27.640625 -26.515625 L 27.640625 -34.714844 L 18.117188 -34.714844 L 18.117188 -43.707031 L 10.316406 -43.707031 L 9.71875 -39.210938 C 9.191406 -35.640625 8.199219 -34.714844 4.429688 -34.714844 L 1.324219 -34.714844 L 1.324219 -26.515625 L 8.066406 -26.515625 L 8.066406 -13.15625 C 8.066406 -4.695312 12.960938 0 21.753906 0 Z M 21.753906 0 "/></g></g></g></svg>