<svg xmlns="http://www.w3.org/2000/svg" xmlns:xlink="http://www.w3.org/1999/xlink" width="500" zoomAndPan="magnify" viewBox="0 0 375 374.999991" height="500" preserveAspectRatio="xMidYMid meet" version="1.0"><defs><g/></defs><g fill="#ffffff" fill-opacity="1"><g transform="translate(71.033467, 209.60165)"><g><path d="M 0.59375 0 L 11.835938 0 L 14.945312 -8 L 33.324219 -8 L 36.433594 0 L 47.671875 0 L 29.292969 -46.285156 L 18.976562 -46.285156 Z M 17.65625 -16.265625 L 24.132812 -33.191406 L 30.679688 -16.265625 Z M 17.65625 -16.265625 "/></g></g></g><g fill="#ffffff" fill-opacity="1"><g transform="translate(115.465458, 209.60165)"><g><path d="M 5.023438 0 L 15.074219 0 L 15.074219 -15.339844 C 15.074219 -22.8125 18.582031 -25.589844 24.332031 -25.589844 L 28.167969 -25.589844 L 28.167969 -34.714844 L 24.398438 -34.714844 C 19.308594 -34.714844 16.066406 -33.324219 13.820312 -30.085938 L 12.496094 -34.714844 L 5.023438 -34.714844 Z M 5.023438 0 "/></g></g></g><g fill="#ffffff" fill-opacity="1"><g transform="translate(142.045174, 209.60165)"><g><path d="M 21.753906 0 L 28.101562 0 L 28.101562 -8.726562 L 23.9375 -8.726562 C 19.96875 -8.726562 18.117188 -10.644531 18.117188 -14.679688 L 18.117188 -26.515625 L 27.640625 -26.515625 L 27.640625 -34.714844 L 18.117188 -34.714844 L 18.117188 -43.707031 L 10.316406 -43.707031 L 9.71875 -39.210938 C 9.191406 -35.640625 8.199219 -34.714844 4.429688 -34.714844 L 1.324219 -34.714844 L 1.324219 -26.515625 L 8.066406 -26.515625 L 8.066406 -13.15625 C 8.066406 -4.695312 12.960938 0 21.753906 0 Z M 21.753906 0 "/></g></g></g><g fill="#ffffff" fill-opacity="1"><g transform="translate(169.08774, 209.60165)"><g><path d="M 5.023438 0 L 15.074219 0 L 15.074219 -34.714844 L 5.023438 -34.714844 Z M 3.570312 -45.953125 C 3.570312 -42.25 6.214844 -39.671875 10.050781 -39.671875 C 13.886719 -39.671875 16.53125 -42.25 16.53125 -45.953125 C 16.53125 -49.65625 13.886719 -52.234375 10.050781 -52.234375 C 6.214844 -52.234375 3.570312 -49.65625 3.570312 -45.953125 Z M 3.570312 -45.953125 "/></g></g></g><g fill="#ffffff" fill-opacity="1"><g transform="translate(185.352824, 209.60165)"><g><path d="M 18.382812 0.925781 C 27.769531 0.925781 33.457031 -3.175781 33.457031 -9.785156 C 33.457031 -15.472656 29.226562 -19.109375 20.628906 -20.828125 C 14.679688 -22.019531 12.828125 -23.011719 12.828125 -25.125 C 12.828125 -27.175781 14.679688 -28.367188 17.65625 -28.367188 C 21.027344 -28.367188 23.078125 -26.84375 23.273438 -24.199219 L 32.863281 -24.199219 C 32.398438 -31.539062 26.976562 -35.640625 17.71875 -35.640625 C 8.398438 -35.640625 3.109375 -31.871094 3.109375 -25.125 C 3.109375 -19.375 7.074219 -15.933594 15.933594 -14.347656 C 21.292969 -13.421875 23.539062 -12.035156 23.539062 -9.851562 C 23.539062 -7.800781 21.6875 -6.546875 18.515625 -6.546875 C 14.8125 -6.546875 12.5625 -8.332031 12.496094 -11.175781 L 2.644531 -11.175781 C 2.644531 -3.902344 8.859375 0.925781 18.382812 0.925781 Z M 18.382812 0.925781 "/></g></g></g><g fill="#ffffff" fill-opacity="1"><g transform="translate(217.684948, 209.60165)"><g><path d="M 21.753906 0 L 28.101562 0 L 28.101562 -8.726562 L 23.9375 -8.726562 C 19.96875 -8.726562 18.117188 -10.644531 18.117188 -14.679688 L 18.117188 -26.515625 L 27.640625 -26.515625 L 27.640625 -34.714844 L 18.117188 -34.714844 L 18.117188 -43.707031 L 10.316406 -43.707031 L 9.71875 -39.210938 C 9.191406 -35.640625 8.199219 -34.714844 4.429688 -34.714844 L 1.324219 -34.714844 L 1.324219 -26.515625 L 8.066406 -26.515625 L 8.066406 -13.15625 C 8.066406 -4.695312 12.960938 0 21.753906 0 Z M 21.753906 0 "/></g></g></g><g fill="#ffffff" fill-opacity="1"><g transform="translate(244.727506, 209.60165)"><g><path d="M 5.023438 0 L 15.074219 0 L 15.074219 -34.714844 L 5.023438 -34.714844 Z M 3.570312 -45.953125 C 3.570312 -42.25 6.214844 -39.671875 10.050781 -39.671875 C 13.886719 -39.671875 16.53125 -42.25 16.53125 -45.953125 C 16.53125 -49.65625 13.886719 -52.234375 10.050781 -52.234375 C 6.214844 -52.234375 3.570312 -49.65625 3.570312 -45.953125 Z M 3.570312 -45.953125 "/></g></g></g><g fill="#ffffff" fill-opacity="1"><g transform="translate(260.992582, 209.60165)"><g><path d="M 21.554688 0.925781 C 31.339844 0.925781 38.679688 -4.828125 40.53125 -13.953125 L 30.746094 -13.953125 C 29.359375 -10.183594 25.917969 -7.734375 21.6875 -7.734375 C 16.265625 -7.734375 12.496094 -11.703125 12.496094 -17.390625 C 12.496094 -23.078125 16.265625 -27.042969 21.6875 -27.042969 C 25.65625 -27.042969 28.894531 -24.929688 30.546875 -21.421875 L 40.203125 -21.421875 C 38.613281 -30.019531 31.210938 -35.640625 21.554688 -35.640625 C 10.445312 -35.640625 2.578125 -28.035156 2.578125 -17.390625 C 2.578125 -6.679688 10.382812 0.925781 21.554688 0.925781 Z M 21.554688 0.925781 "/></g></g></g></svg>