<svg xmlns="http://www.w3.org/2000/svg" xmlns:xlink="http://www.w3.org/1999/xlink" width="500" zoomAndPan="magnify" viewBox="0 0 375 374.999991" height="500" preserveAspectRatio="xMidYMid meet" version="1.0"><defs><g/></defs><g fill="#ffffff" fill-opacity="1"><g transform="translate(65.676526, 209.60165)"><g><path d="M 5.554688 0 L 16.066406 0 L 16.066406 -15.933594 L 32.863281 -15.933594 L 32.863281 -25.191406 L 16.066406 -25.191406 L 16.066406 -36.761719 L 34.582031 -36.761719 L 34.582031 -46.285156 L 5.554688 -46.285156 Z M 5.554688 0 "/></g></g></g><g fill="#ffffff" fill-opacity="1"><g transform="translate(99.331037, 209.60165)"><g><path d="M 5.023438 0 L 15.074219 0 L 15.074219 -48.929688 L 5.023438 -48.929688 Z M 5.023438 0 "/></g></g></g><g fill="#ffffff" fill-opacity="1"><g transform="translate(115.596119, 209.60165)"><g><path d="M 21.421875 0.925781 C 29.953125 0.925781 36.699219 -3.4375 39.738281 -10.777344 L 29.554688 -10.777344 C 27.902344 -8.464844 24.929688 -7.140625 21.621094 -7.140625 C 17.058594 -7.140625 13.488281 -9.71875 12.5625 -14.480469 L 40.398438 -14.480469 C 40.996094 -27.175781 33.457031 -35.640625 21.554688 -35.640625 C 10.316406 -35.640625 2.578125 -28.167969 2.578125 -17.390625 C 2.578125 -6.546875 10.25 0.925781 21.421875 0.925781 Z M 12.628906 -20.828125 C 13.753906 -25.058594 17.191406 -27.640625 21.621094 -27.640625 C 26.25 -27.640625 29.554688 -25.058594 30.679688 -20.828125 Z M 12.628906 -20.828125 "/></g></g></g><g fill="#ffffff" fill-opacity="1"><g transform="translate(154.672436, 209.60165)"><g><path d="M 1.585938 0 L 13.15625 0 L 16.925781 -5.554688 L 20.300781 -10.511719 L 23.605469 -5.554688 L 27.375 0 L 38.945312 0 L 26.648438 -17.65625 L 38.417969 -34.714844 L 27.042969 -34.714844 L 23.472656 -29.425781 L 20.234375 -24.464844 L 13.488281 -34.714844 L 2.117188 -34.714844 L 13.953125 -17.65625 Z M 1.585938 0 "/></g></g></g><g fill="#ffffff" fill-opacity="1"><g transform="translate(191.368451, 209.60165)"><g><path d="M 5.023438 0 L 15.074219 0 L 15.074219 -34.714844 L 5.023438 -34.714844 Z M 3.570312 -45.953125 C 3.570312 -42.25 6.214844 -39.671875 10.050781 -39.671875 C 13.886719 -39.671875 16.53125 -42.25 16.53125 -45.953125 C 16.53125 -49.65625 13.886719 -52.234375 10.050781 -52.234375 C 6.214844 -52.234375 3.570312 -49.65625 3.570312 -45.953125 Z M 3.570312 -45.953125 "/></g></g></g><g fill="#ffffff" fill-opacity="1"><g transform="translate(207.633527, 209.60165)"><g><path d="M 26.050781 0.925781 C 36.433594 0.925781 43.773438 -6.613281 43.773438 -17.390625 C 43.773438 -28.035156 36.433594 -35.640625 26.050781 -35.640625 C 21.753906 -35.640625 17.984375 -34.316406 15.074219 -32.003906 L 15.074219 -48.929688 L 5.023438 -48.929688 L 5.023438 0 L 12.496094 0 L 13.621094 -3.96875 C 16.730469 -0.859375 21.027344 0.925781 26.050781 0.925781 Z M 14.679688 -17.390625 C 14.679688 -23.011719 18.644531 -27.042969 24.265625 -27.042969 C 29.953125 -27.042969 33.855469 -23.011719 33.855469 -17.390625 C 33.855469 -11.703125 29.953125 -7.734375 24.265625 -7.734375 C 18.644531 -7.734375 14.679688 -11.703125 14.679688 -17.390625 Z M 14.679688 -17.390625 "/></g></g></g><g fill="#ffffff" fill-opacity="1"><g transform="translate(250.148046, 209.60165)"><g><path d="M 5.023438 0 L 15.074219 0 L 15.074219 -48.929688 L 5.023438 -48.929688 Z M 5.023438 0 "/></g></g></g><g fill="#ffffff" fill-opacity="1"><g transform="translate(266.413122, 209.60165)"><g><path d="M 21.421875 0.925781 C 29.953125 0.925781 36.699219 -3.4375 39.738281 -10.777344 L 29.554688 -10.777344 C 27.902344 -8.464844 24.929688 -7.140625 21.621094 -7.140625 C 17.058594 -7.140625 13.488281 -9.71875 12.5625 -14.480469 L 40.398438 -14.480469 C 40.996094 -27.175781 33.457031 -35.640625 21.554688 -35.640625 C 10.316406 -35.640625 2.578125 -28.167969 2.578125 -17.390625 C 2.578125 -6.546875 10.25 0.925781 21.421875 0.925781 Z M 12.628906 -20.828125 C 13.753906 -25.058594 17.191406 -27.640625 21.621094 -27.640625 C 26.25 -27.640625 29.554688 -25.058594 30.679688 -20.828125 Z M 12.628906 -20.828125 "/></g></g></g></svg>