<svg xmlns="http://www.w3.org/2000/svg" xmlns:xlink="http://www.w3.org/1999/xlink" width="500" zoomAndPan="magnify" viewBox="0 0 375 374.999991" height="500" preserveAspectRatio="xMidYMid meet" version="1.0"><defs><g/></defs><g fill="#ff621a" fill-opacity="1"><g transform="translate(19.634765, 205.4267)"><g><path d="M 4.121094 0 L 12.363281 0 L 12.363281 -28.464844 L 4.121094 -28.464844 Z M 2.929688 -37.679688 C 2.929688 -34.644531 5.097656 -32.53125 8.242188 -32.53125 C 11.386719 -32.53125 13.554688 -34.644531 13.554688 -37.679688 C 13.554688 -40.71875 11.386719 -42.832031 8.242188 -42.832031 C 5.097656 -42.832031 2.929688 -40.71875 2.929688 -37.679688 Z M 2.929688 -37.679688 "/></g></g></g><g fill="#ff621a" fill-opacity="1"><g transform="translate(32.969958, 205.4267)"><g><path d="M 4.121094 0 L 12.363281 0 L 12.363281 -14.910156 C 12.363281 -19.410156 14.855469 -22.175781 18.652344 -22.175781 C 22.175781 -22.175781 24.289062 -19.679688 24.289062 -15.507812 L 24.289062 0 L 32.53125 0 L 32.53125 -16.375 C 32.53125 -24.234375 28.03125 -29.222656 20.601562 -29.222656 C 16.808594 -29.222656 13.390625 -27.921875 11.113281 -25.265625 L 10.246094 -28.464844 L 4.121094 -28.464844 Z M 4.121094 0 "/></g></g></g><g fill="#ff621a" fill-opacity="1"><g transform="translate(65.929535, 205.4267)"><g><path d="M 12.308594 0 L 20.546875 0 L 32.421875 -28.464844 L 23.476562 -28.464844 L 20.222656 -19.519531 L 16.480469 -9.867188 L 12.6875 -19.519531 L 9.488281 -28.464844 L 0.488281 -28.464844 Z M 12.308594 0 "/></g></g></g><g fill="#ff621a" fill-opacity="1"><g transform="translate(95.69066, 205.4267)"><g><path d="M 17.566406 0.757812 C 24.558594 0.757812 30.089844 -2.820312 32.585938 -8.835938 L 24.234375 -8.835938 C 22.878906 -6.941406 20.441406 -5.855469 17.730469 -5.855469 C 13.988281 -5.855469 11.058594 -7.96875 10.300781 -11.875 L 33.125 -11.875 C 33.613281 -22.285156 27.433594 -29.222656 17.675781 -29.222656 C 8.457031 -29.222656 2.113281 -23.097656 2.113281 -14.257812 C 2.113281 -5.367188 8.402344 0.757812 17.566406 0.757812 Z M 10.355469 -17.078125 C 11.277344 -20.546875 14.097656 -22.664062 17.730469 -22.664062 C 21.523438 -22.664062 24.234375 -20.546875 25.15625 -17.078125 Z M 10.355469 -17.078125 "/></g></g></g><g fill="#ff621a" fill-opacity="1"><g transform="translate(127.728645, 205.4267)"><g><path d="M 15.074219 0.757812 C 22.769531 0.757812 27.433594 -2.601562 27.433594 -8.023438 C 27.433594 -12.6875 23.964844 -15.667969 16.914062 -17.078125 C 12.035156 -18.054688 10.519531 -18.867188 10.519531 -20.601562 C 10.519531 -22.285156 12.035156 -23.257812 14.476562 -23.257812 C 17.242188 -23.257812 18.921875 -22.011719 19.085938 -19.84375 L 26.945312 -19.84375 C 26.566406 -25.863281 22.121094 -29.222656 14.53125 -29.222656 C 6.886719 -29.222656 2.546875 -26.132812 2.546875 -20.601562 C 2.546875 -15.886719 5.800781 -13.066406 13.066406 -11.765625 C 17.457031 -11.007812 19.300781 -9.867188 19.300781 -8.078125 C 19.300781 -6.398438 17.785156 -5.367188 15.179688 -5.367188 C 12.144531 -5.367188 10.300781 -6.832031 10.246094 -9.164062 L 2.167969 -9.164062 C 2.167969 -3.199219 7.265625 0.757812 15.074219 0.757812 Z M 15.074219 0.757812 "/></g></g></g><g fill="#ff621a" fill-opacity="1"><g transform="translate(154.237109, 205.4267)"><g><path d="M 17.835938 0 L 23.042969 0 L 23.042969 -7.15625 L 19.625 -7.15625 C 16.375 -7.15625 14.855469 -8.730469 14.855469 -12.035156 L 14.855469 -21.742188 L 22.664062 -21.742188 L 22.664062 -28.464844 L 14.855469 -28.464844 L 14.855469 -35.835938 L 8.457031 -35.835938 L 7.96875 -32.152344 C 7.535156 -29.222656 6.722656 -28.464844 3.632812 -28.464844 L 1.085938 -28.464844 L 1.085938 -21.742188 L 6.613281 -21.742188 L 6.613281 -10.789062 C 6.613281 -3.847656 10.625 0 17.835938 0 Z M 17.835938 0 "/></g></g></g><g fill="#ff621a" fill-opacity="1"><g transform="translate(176.408696, 205.4267)"><g><path d="M 4.121094 0 L 12.363281 0 L 12.363281 -28.464844 L 4.121094 -28.464844 Z M 2.929688 -37.679688 C 2.929688 -34.644531 5.097656 -32.53125 8.242188 -32.53125 C 11.386719 -32.53125 13.554688 -34.644531 13.554688 -37.679688 C 13.554688 -40.71875 11.386719 -42.832031 8.242188 -42.832031 C 5.097656 -42.832031 2.929688 -40.71875 2.929688 -37.679688 Z M 2.929688 -37.679688 "/></g></g></g><g fill="#ff621a" fill-opacity="1"><g transform="translate(189.743889, 205.4267)"><g><path d="M 18 12.035156 C 27.109375 12.035156 32.910156 6.941406 32.910156 -1.574219 L 32.910156 -28.464844 L 26.785156 -28.464844 L 25.914062 -25.320312 C 23.421875 -27.8125 19.953125 -29.222656 15.886719 -29.222656 C 7.863281 -29.222656 2.113281 -23.3125 2.113281 -15.019531 C 2.113281 -6.667969 7.863281 -0.757812 15.886719 -0.757812 C 19.300781 -0.757812 22.335938 -1.789062 24.667969 -3.578125 L 24.667969 -1.574219 C 24.667969 3.035156 22.335938 5.367188 17.835938 5.367188 C 14.421875 5.367188 12.144531 3.957031 11.546875 1.464844 L 3.523438 1.464844 C 4.230469 8.023438 9.757812 12.035156 18 12.035156 Z M 10.246094 -15.019531 C 10.246094 -19.355469 13.285156 -22.390625 17.621094 -22.390625 C 21.957031 -22.390625 25.046875 -19.355469 25.046875 -15.019531 C 25.046875 -10.625 21.957031 -7.589844 17.621094 -7.589844 C 13.285156 -7.589844 10.246094 -10.625 10.246094 -15.019531 Z M 10.246094 -15.019531 "/></g></g></g><g fill="#ff621a" fill-opacity="1"><g transform="translate(223.679247, 205.4267)"><g><path d="M 13.609375 0.542969 C 17.835938 0.542969 21.308594 -0.8125 23.746094 -3.308594 L 24.667969 0 L 30.796875 0 L 30.796875 -17.132812 C 30.796875 -24.667969 25.699219 -29.222656 17.1875 -29.222656 C 9.921875 -29.222656 5.152344 -25.753906 4.121094 -19.574219 L 12.035156 -19.574219 C 12.523438 -21.578125 14.585938 -22.933594 17.242188 -22.933594 C 20.496094 -22.933594 22.71875 -21.089844 22.71875 -18.269531 L 22.71875 -16.96875 L 12.414062 -16.96875 C 6.507812 -16.96875 2.710938 -13.554688 2.710938 -8.296875 C 2.710938 -2.820312 6.886719 0.542969 13.609375 0.542969 Z M 10.84375 -8.621094 C 10.84375 -10.574219 12.46875 -11.820312 14.964844 -11.820312 L 22.769531 -11.820312 C 22.609375 -7.96875 19.625 -5.367188 15.507812 -5.367188 C 12.6875 -5.367188 10.84375 -6.667969 10.84375 -8.621094 Z M 10.84375 -8.621094 "/></g></g></g><g fill="#ff621a" fill-opacity="1"><g transform="translate(254.904083, 205.4267)"><g><path d="M 17.835938 0 L 23.042969 0 L 23.042969 -7.15625 L 19.625 -7.15625 C 16.375 -7.15625 14.855469 -8.730469 14.855469 -12.035156 L 14.855469 -21.742188 L 22.664062 -21.742188 L 22.664062 -28.464844 L 14.855469 -28.464844 L 14.855469 -35.835938 L 8.457031 -35.835938 L 7.96875 -32.152344 C 7.535156 -29.222656 6.722656 -28.464844 3.632812 -28.464844 L 1.085938 -28.464844 L 1.085938 -21.742188 L 6.613281 -21.742188 L 6.613281 -10.789062 C 6.613281 -3.847656 10.625 0 17.835938 0 Z M 17.835938 0 "/></g></g></g><g fill="#ff621a" fill-opacity="1"><g transform="translate(277.075682, 205.4267)"><g><path d="M 4.121094 0 L 12.363281 0 L 12.363281 -28.464844 L 4.121094 -28.464844 Z M 2.929688 -37.679688 C 2.929688 -34.644531 5.097656 -32.53125 8.242188 -32.53125 C 11.386719 -32.53125 13.554688 -34.644531 13.554688 -37.679688 C 13.554688 -40.71875 11.386719 -42.832031 8.242188 -42.832031 C 5.097656 -42.832031 2.929688 -40.71875 2.929688 -37.679688 Z M 2.929688 -37.679688 "/></g></g></g><g fill="#ff621a" fill-opacity="1"><g transform="translate(290.410886, 205.4267)"><g><path d="M 12.308594 0 L 20.546875 0 L 32.421875 -28.464844 L 23.476562 -28.464844 L 20.222656 -19.519531 L 16.480469 -9.867188 L 12.6875 -19.519531 L 9.488281 -28.464844 L 0.488281 -28.464844 Z M 12.308594 0 "/></g></g></g><g fill="#ff621a" fill-opacity="1"><g transform="translate(320.172024, 205.4267)"><g><path d="M 17.566406 0.757812 C 24.558594 0.757812 30.089844 -2.820312 32.585938 -8.835938 L 24.234375 -8.835938 C 22.878906 -6.941406 20.441406 -5.855469 17.730469 -5.855469 C 13.988281 -5.855469 11.058594 -7.96875 10.300781 -11.875 L 33.125 -11.875 C 33.613281 -22.285156 27.433594 -29.222656 17.675781 -29.222656 C 8.457031 -29.222656 2.113281 -23.097656 2.113281 -14.257812 C 2.113281 -5.367188 8.402344 0.757812 17.566406 0.757812 Z M 10.355469 -17.078125 C 11.277344 -20.546875 14.097656 -22.664062 17.730469 -22.664062 C 21.523438 -22.664062 24.234375 -20.546875 25.15625 -17.078125 Z M 10.355469 -17.078125 "/></g></g></g></svg>